<?xml version="1.0" encoding="UTF-8"?>
<svg enable-background="new 285.344 410.052 23.259 23.26" version="1.1" viewBox="285.34 410.05 23.259 23.26" xml:space="preserve" xmlns="http://www.w3.org/2000/svg" xmlns:cc="http://web.resource.org/cc/" xmlns:dc="http://purl.org/dc/elements/1.1/" xmlns:rdf="http://www.w3.org/1999/02/22-rdf-syntax-ns#">
		<path d="m308.12 431.62c0 0.688-0.558 1.244-1.245 1.244h-19.723c-0.688 0-1.245-0.559-1.245-1.244v-19.724c0-0.688 0.558-1.246 1.245-1.246h19.723c0.688 0 1.245 0.559 1.245 1.246v19.72z" fill="none" stroke="#000"/>
		<path d="m308.12 431.62c0 0.688-0.558 1.244-1.245 1.244h-19.723c-0.688 0-1.245-0.559-1.245-1.244v-19.724c0-0.688 0.558-1.246 1.245-1.246h19.723c0.688 0 1.245 0.559 1.245 1.246v19.72z" fill="#fff"/>
		<path d="m306.88 410.66h-7.889v6.937h9.134v-5.69c0-0.7-0.55-1.25-1.24-1.25z"/>
			<path d="m306.88 410.66h-7.101v6.18h8.346v-4.934c-0.01-0.7-0.56-1.25-1.25-1.25z" fill="#fff"/>
		<path d="m285.91 431.62c0 0.688 0.558 1.244 1.245 1.244h12.761v-8.59h1.178v-0.912h-15.184v8.26z"/>
		<path d="m285.91 431.62c0 0.688 0.558 1.244 1.245 1.244h11.34v-8.086h-12.589v6.85z" fill="#fff"/>
			<path d="m293.55 414.71c-0.212 0.982-1.183 1.607-2.163 1.393-0.979-0.212-1.6-1.18-1.388-2.16 0.212-0.979 1.178-1.602 2.156-1.391 0.97 0.21 1.6 1.18 1.39 2.16z"/>
			<path d="m295.56 415.89c1.408-0.384 2.26-0.887 3.591-1.737-0.5 0.729-1.146 1.664-1.753 2.181-0.951 0.837-1.197 1.18-2.276 1.446-0.356 0.132-0.845-0.565-0.614-1.061 0.19-0.58 0.68-0.68 1.05-0.83z"/>
			<path d="m291.82 417.43c-0.445 0-1.334 0.218-1.496 0.785-0.161 0.568 0.303 1.084 0.389 2.188 0.145 1.849-2.231 1.679-2.347 3.659-0.035 0.646 5.095 0.17 5.095 0.17s-0.928-1.965-0.562-2.695c0.364-0.729 0.947-2.459 0.665-3.208-0.28-0.75-1.12-0.9-1.74-0.9z"/>
			<circle cx="293.1" cy="417.74" r="1.058"/>
			<circle cx="290.69" cy="417.74" r="1.058"/>
			<path d="m287.12 418.42c0.237-0.653 0.449-1.412 1.206-1.799 0.365-0.226 0.974-0.04 1.062 0.332 0.129 0.312-0.104 0.613-0.218 0.899-0.637 1.219-1.342 2.422-1.701 3.723-0.243 0.854-0.263 1.744-0.658 2.566-0.47-1.88-0.27-3.86 0.31-5.72z"/>
			<path d="m301.48 414.47-0.454 1.371h-0.581l1.479-4.358h0.681l1.487 4.358h-0.603l-0.466-1.371h-1.55zm1.43-0.44-0.426-1.255c-0.098-0.284-0.162-0.543-0.229-0.795h-0.012c-0.065 0.258-0.136 0.523-0.221 0.788l-0.428 1.262h1.32z"/>
			<path d="m307.37 415.09c0 0.271 0.013 0.537 0.051 0.749h-0.518l-0.045-0.393h-0.021c-0.175 0.245-0.511 0.465-0.956 0.465-0.635 0-0.958-0.446-0.958-0.898 0-0.758 0.673-1.172 1.883-1.166v-0.063c0-0.259-0.069-0.725-0.712-0.725-0.291 0-0.595 0.091-0.814 0.233l-0.129-0.375c0.259-0.168 0.634-0.279 1.027-0.279 0.958 0 1.191 0.654 1.191 1.281v1.17zm-0.55-0.85c-0.62-0.012-1.325 0.099-1.325 0.704 0 0.37 0.244 0.545 0.535 0.545 0.407 0 0.667-0.259 0.758-0.524 0.02-0.058 0.032-0.124 0.032-0.182v-0.54z"/>
<metadata><rdf:RDF><cc:Work><dc:format>image/svg+xml</dc:format><dc:type rdf:resource="http://purl.org/dc/dcmitype/StillImage"/><cc:license rdf:resource="http://creativecommons.org/licenses/publicdomain/"/><dc:publisher><cc:Agent rdf:about="http://openclipart.org/"><dc:title>Openclipart</dc:title></cc:Agent></dc:publisher><dc:title>School</dc:title><dc:date>2011-03-17T13:45:45</dc:date><dc:description>clip art, clipart, education, professeur, school, teacher, école, </dc:description><dc:source>http://openclipart.org/detail/128017/school-by-cyroulette-128017</dc:source><dc:creator><cc:Agent><dc:title>Cyroulette</dc:title></cc:Agent></dc:creator><dc:subject><rdf:Bag><rdf:li>clip art</rdf:li><rdf:li>clipart</rdf:li><rdf:li>education</rdf:li><rdf:li>professeur</rdf:li><rdf:li>school</rdf:li><rdf:li>teacher</rdf:li><rdf:li>école</rdf:li></rdf:Bag></dc:subject></cc:Work><cc:License rdf:about="http://creativecommons.org/licenses/publicdomain/"><cc:permits rdf:resource="http://creativecommons.org/ns#Reproduction"/><cc:permits rdf:resource="http://creativecommons.org/ns#Distribution"/><cc:permits rdf:resource="http://creativecommons.org/ns#DerivativeWorks"/></cc:License></rdf:RDF></metadata></svg>
